<?xml version="1.0" encoding="UTF-8" standalone="no"?><svg xmlns="http://www.w3.org/2000/svg" xmlns:xlink="http://www.w3.org/1999/xlink" contentStyleType="text/css" height="802px" preserveAspectRatio="none" style="width:1728px;height:802px;background:#FFFFFF;" version="1.1" viewBox="0 0 1728 802" width="1728px" zoomAndPan="magnify"><defs/><g><ellipse cx="69" cy="337.3564" fill="#222222" rx="10" ry="10" style="stroke:none;stroke-width:1.0;"/><g id="NichtsGedrueckt"><rect fill="#F1F1F1" height="50" rx="12.5" ry="12.5" style="stroke:#181818;stroke-width:0.5;" width="124" x="7" y="382.3564"/><line style="stroke:#181818;stroke-width:0.5;" x1="7" x2="131" y1="409.9658" y2="409.9658"/><text fill="#000000" font-family="sans-serif" font-size="14" lengthAdjust="spacing" textLength="104" x="17" y="401.8896">NichtsGedrueckt</text></g><g id="Schalter1Gedrueckt"><rect fill="#F1F1F1" height="50" rx="12.5" ry="12.5" style="stroke:#181818;stroke-width:0.5;" width="146" x="225" y="382.3564"/><line style="stroke:#181818;stroke-width:0.5;" x1="225" x2="371" y1="409.9658" y2="409.9658"/><text fill="#000000" font-family="sans-serif" font-size="14" lengthAdjust="spacing" textLength="126" x="235" y="401.8896">Schalter1Gedrueckt</text></g><g id="Schalter1GedruecktZweiMal"><rect fill="#F1F1F1" height="50" rx="12.5" ry="12.5" style="stroke:#181818;stroke-width:0.5;" width="196" x="465" y="382.3564"/><line style="stroke:#181818;stroke-width:0.5;" x1="465" x2="661" y1="409.9658" y2="409.9658"/><text fill="#000000" font-family="sans-serif" font-size="14" lengthAdjust="spacing" textLength="176" x="475" y="401.8896">Schalter1GedruecktZweiMal</text></g><g id="Schalter2Gedrueckt"><rect fill="#F1F1F1" height="50" rx="12.5" ry="12.5" style="stroke:#181818;stroke-width:0.5;" width="146" x="755" y="485.3564"/><line style="stroke:#181818;stroke-width:0.5;" x1="755" x2="901" y1="512.9658" y2="512.9658"/><text fill="#000000" font-family="sans-serif" font-size="14" lengthAdjust="spacing" textLength="126" x="765" y="504.8896">Schalter2Gedrueckt</text></g><g id="Schalter2GedruecktZweiMal"><rect fill="#F1F1F1" height="50" rx="12.5" ry="12.5" style="stroke:#181818;stroke-width:0.5;" width="196" x="995" y="265.3564"/><line style="stroke:#181818;stroke-width:0.5;" x1="995" x2="1191" y1="292.9658" y2="292.9658"/><text fill="#000000" font-family="sans-serif" font-size="14" lengthAdjust="spacing" textLength="176" x="1005" y="284.8896">Schalter2GedruecktZweiMal</text></g><g id="Schalter3Gedrueckt"><rect fill="#F1F1F1" height="50" rx="12.5" ry="12.5" style="stroke:#181818;stroke-width:0.5;" width="146" x="1285" y="343.3564"/><line style="stroke:#181818;stroke-width:0.5;" x1="1285" x2="1431" y1="370.9658" y2="370.9658"/><text fill="#000000" font-family="sans-serif" font-size="14" lengthAdjust="spacing" textLength="126" x="1295" y="362.8896">Schalter3Gedrueckt</text></g><g id="Schalter3GedruecktZweiMal"><rect fill="#F1F1F1" height="50" rx="12.5" ry="12.5" style="stroke:#181818;stroke-width:0.5;" width="196" x="1525" y="343.3564"/><line style="stroke:#181818;stroke-width:0.5;" x1="1525" x2="1721" y1="370.9658" y2="370.9658"/><text fill="#000000" font-family="sans-serif" font-size="14" lengthAdjust="spacing" textLength="176" x="1535" y="362.8896">Schalter3GedruecktZweiMal</text></g><!--MD5=[136406ff590b04249533907044324893]
link *start to NichtsGedrueckt--><g id="link_*start_NichtsGedrueckt"><path d="M69,347.5164 C69,357.3664 69,367.2064 69,377.0564 " fill="none" id="*start-to-NichtsGedrueckt" style="stroke:#181818;stroke-width:1.0;"/><polygon fill="#181818" points="69,382.2064,73,373.2064,69,377.2064,65,373.2064,69,382.2064" style="stroke:#181818;stroke-width:1.0;"/></g><!--MD5=[0b50a6c42da8df77150fe28ed7a7e05f]
link NichtsGedrueckt to Schalter1Gedrueckt--><g id="link_NichtsGedrueckt_Schalter1Gedrueckt"><path d="M131.13,407.3564 C158.33,407.3564 190.66,407.3564 219.53,407.3564 " fill="none" id="NichtsGedrueckt-to-Schalter1Gedrueckt" style="stroke:#181818;stroke-width:1.0;"/><polygon fill="#181818" points="224.88,407.3564,215.88,403.3564,219.88,407.3564,215.88,411.3564,224.88,407.3564" style="stroke:#181818;stroke-width:1.0;"/><text fill="#000000" font-family="sans-serif" font-size="13" lengthAdjust="spacing" textLength="32" x="162" y="403.8516">1/XXX</text></g><!--MD5=[7d7b0e52edb97c9c047a3ba59e4fa257]
link Schalter1Gedrueckt to Schalter1GedruecktZweiMal--><g id="link_Schalter1Gedrueckt_Schalter1GedruecktZweiMal"><path d="M371.21,407.3564 C398.53,407.3564 430.15,407.3564 459.71,407.3564 " fill="none" id="Schalter1Gedrueckt-to-Schalter1GedruecktZweiMal" style="stroke:#181818;stroke-width:1.0;"/><polygon fill="#181818" points="464.82,407.3564,455.82,403.3564,459.82,407.3564,455.82,411.3564,464.82,407.3564" style="stroke:#181818;stroke-width:1.0;"/><text fill="#000000" font-family="sans-serif" font-size="13" lengthAdjust="spacing" textLength="32" x="402" y="403.8516">1/0XX</text></g><!--MD5=[5e96738fd2a4e4fd2b87f3069e5da2ca]
link Schalter1GedruecktZweiMal to Schalter1GedruecktZweiMal--><g id="link_Schalter1GedruecktZweiMal_Schalter1GedruecktZweiMal"><path d="M538.64,382.0764 C531.25,364.5864 539.38,347.3564 563,347.3564 C584.41,347.3564 593.09,361.5064 589.03,377.1764 " fill="none" id="Schalter1GedruecktZweiMal-to-Schalter1GedruecktZweiMal" style="stroke:#181818;stroke-width:1.0;"/><polygon fill="#181818" points="587.36,382.0764,594.0336,374.8333,588.9626,377.3402,586.4557,372.2692,587.36,382.0764" style="stroke:#181818;stroke-width:1.0;"/><text fill="#000000" font-family="sans-serif" font-size="13" lengthAdjust="spacing" textLength="32" x="547" y="338.8516">1/0XX</text></g><!--MD5=[2876fb2019916ece4c8d6e04b1c44af1]
link NichtsGedrueckt to Schalter2Gedrueckt--><g id="link_NichtsGedrueckt_Schalter2Gedrueckt"><path d="M85.42,432.3764 C126.83,496.8464 247.8,667.9964 401,730.3564 C560.06,795.1064 739.42,612.6164 803.06,539.3264 " fill="none" id="NichtsGedrueckt-to-Schalter2Gedrueckt" style="stroke:#181818;stroke-width:1.0;"/><polygon fill="#181818" points="806.36,535.4964,797.4489,539.6907,803.0908,539.2796,803.5019,544.9215,806.36,535.4964" style="stroke:#181818;stroke-width:1.0;"/><text fill="#000000" font-family="sans-serif" font-size="13" lengthAdjust="spacing" textLength="32" x="402" y="726.8516">2/XXX</text></g><!--MD5=[7994b562caba5a87aabb0f47e9093917]
link Schalter2Gedrueckt to Schalter2GedruecktZweiMal--><g id="link_Schalter2Gedrueckt_Schalter2GedruecktZweiMal"><path d="M878.79,485.3064 C905.59,470.7264 938.48,450.9764 965,429.3564 C1005.98,395.9564 1045.87,349.2764 1069.69,319.4264 " fill="none" id="Schalter2Gedrueckt-to-Schalter2GedruecktZweiMal" style="stroke:#181818;stroke-width:1.0;"/><polygon fill="#181818" points="1072.8,315.5164,1064.0766,320.0884,1069.6958,319.4361,1070.3481,325.0552,1072.8,315.5164" style="stroke:#181818;stroke-width:1.0;"/><text fill="#000000" font-family="sans-serif" font-size="13" lengthAdjust="spacing" textLength="32" x="932" y="425.8516">2/X0X</text></g><!--MD5=[1324af5439f1069da45aab2e0d777f0e]
link Schalter2GedruecktZweiMal to Schalter2GedruecktZweiMal--><g id="link_Schalter2GedruecktZweiMal_Schalter2GedruecktZweiMal"><path d="M1068.64,265.0764 C1061.25,247.5864 1069.38,230.3564 1093,230.3564 C1114.41,230.3564 1123.09,244.5064 1119.03,260.1764 " fill="none" id="Schalter2GedruecktZweiMal-to-Schalter2GedruecktZweiMal" style="stroke:#181818;stroke-width:1.0;"/><polygon fill="#181818" points="1117.36,265.0764,1124.0336,257.8333,1118.9626,260.3402,1116.4557,255.2692,1117.36,265.0764" style="stroke:#181818;stroke-width:1.0;"/><text fill="#000000" font-family="sans-serif" font-size="13" lengthAdjust="spacing" textLength="32" x="1077" y="221.8516">2/X0X</text></g><!--MD5=[8f195cc598704980b1a78faaccac70ee]
link NichtsGedrueckt to Schalter3Gedrueckt--><g id="link_NichtsGedrueckt_Schalter3Gedrueckt"><path d="M111.76,382.2164 C118.71,376.8764 125.46,370.8664 131,364.3564 C240.04,236.3364 128.84,24.3564 297,24.3564 C297,24.3564 297,24.3564 1094,24.3564 C1251.4,24.3564 1327.25,254.4464 1349.67,338.2764 " fill="none" id="NichtsGedrueckt-to-Schalter3Gedrueckt" style="stroke:#181818;stroke-width:1.0;"/><polygon fill="#181818" points="1351,343.3464,1352.5496,333.6203,1349.7135,338.5148,1344.8189,335.6787,1351,343.3464" style="stroke:#181818;stroke-width:1.0;"/><text fill="#000000" font-family="sans-serif" font-size="13" lengthAdjust="spacing" textLength="32" x="692" y="20.8516">3/XXX</text></g><!--MD5=[49c2dacef9caf181e6fa7e4408d12565]
link Schalter3Gedrueckt to Schalter3GedruecktZweiMal--><g id="link_Schalter3Gedrueckt_Schalter3GedruecktZweiMal"><path d="M1431.21,368.3564 C1458.53,368.3564 1490.15,368.3564 1519.71,368.3564 " fill="none" id="Schalter3Gedrueckt-to-Schalter3GedruecktZweiMal" style="stroke:#181818;stroke-width:1.0;"/><polygon fill="#181818" points="1524.82,368.3564,1515.82,364.3564,1519.82,368.3564,1515.82,372.3564,1524.82,368.3564" style="stroke:#181818;stroke-width:1.0;"/><text fill="#000000" font-family="sans-serif" font-size="13" lengthAdjust="spacing" textLength="32" x="1462" y="364.8516">3/XX0</text></g><!--MD5=[8e8db5b2678672d967f671d40e08d2e9]
link Schalter3GedruecktZweiMal to Schalter3GedruecktZweiMal--><g id="link_Schalter3GedruecktZweiMal_Schalter3GedruecktZweiMal"><path d="M1598.64,343.0764 C1591.25,325.5864 1599.38,308.3564 1623,308.3564 C1644.41,308.3564 1653.09,322.5064 1649.03,338.1764 " fill="none" id="Schalter3GedruecktZweiMal-to-Schalter3GedruecktZweiMal" style="stroke:#181818;stroke-width:1.0;"/><polygon fill="#181818" points="1647.36,343.0764,1654.0336,335.8333,1648.9626,338.3402,1646.4557,333.2692,1647.36,343.0764" style="stroke:#181818;stroke-width:1.0;"/><text fill="#000000" font-family="sans-serif" font-size="13" lengthAdjust="spacing" textLength="32" x="1607" y="299.8516">3/XX0</text></g><!--MD5=[58311a0ce6b43d32a6fba8c8dbbbd1f7]
link Schalter1Gedrueckt to Schalter2Gedrueckt--><g id="link_Schalter1Gedrueckt_Schalter2Gedrueckt"><path d="M357.93,432.3864 C389.21,444.7164 428.62,458.7464 465,467.3564 C561.53,490.2164 675.56,501.2064 749.47,506.2864 " fill="none" id="Schalter1Gedrueckt-to-Schalter2Gedrueckt" style="stroke:#181818;stroke-width:1.0;"/><polygon fill="#181818" points="754.72,506.6464,746.0156,502.0384,749.7318,506.3034,745.4668,510.0196,754.72,506.6464" style="stroke:#181818;stroke-width:1.0;"/><text fill="#000000" font-family="sans-serif" font-size="13" lengthAdjust="spacing" textLength="32" x="547" y="463.8516">2/XXX</text></g><!--MD5=[685461339f7f6fe74fd70b73cbb0449f]
link Schalter2Gedrueckt to Schalter1Gedrueckt--><g id="link_Schalter2Gedrueckt_Schalter1Gedrueckt"><path d="M755,527.6064 C680.52,542.1964 561.77,556.2464 465,525.3564 C410.14,507.8464 357.89,464.8464 327.14,435.8864 " fill="none" id="Schalter2Gedrueckt-to-Schalter1Gedrueckt" style="stroke:#181818;stroke-width:1.0;"/><polygon fill="#181818" points="323.49,432.4264,327.2477,441.5303,327.1103,435.8751,332.7655,435.7377,323.49,432.4264" style="stroke:#181818;stroke-width:1.0;"/><text fill="#000000" font-family="sans-serif" font-size="13" lengthAdjust="spacing" textLength="32" x="547" y="521.8516">1/XXX</text></g><!--MD5=[61deb33ff2beac21c8defc61e7282518]
link Schalter1Gedrueckt to Schalter3Gedrueckt--><g id="link_Schalter1Gedrueckt_Schalter3Gedrueckt"><path d="M308.47,432.6064 C336.04,501.2864 423.21,686.3564 562,686.3564 C562,686.3564 562,686.3564 1094,686.3564 C1242.45,686.3564 1322.88,478.0364 1348.16,398.6164 " fill="none" id="Schalter1Gedrueckt-to-Schalter3Gedrueckt" style="stroke:#181818;stroke-width:1.0;"/><polygon fill="#181818" points="1349.74,393.5764,1343.225,400.9626,1348.2405,398.3463,1350.8568,403.3618,1349.74,393.5764" style="stroke:#181818;stroke-width:1.0;"/><text fill="#000000" font-family="sans-serif" font-size="13" lengthAdjust="spacing" textLength="32" x="812" y="682.8516">3/XXX</text></g><!--MD5=[c836bdf93eaf24a4feeb3f2da1d8ae13]
link Schalter3Gedrueckt to Schalter1Gedrueckt--><g id="link_Schalter3Gedrueckt_Schalter1Gedrueckt"><path d="M1341.01,343.1864 C1304.42,289.0364 1208.86,166.3564 1094,166.3564 C562,166.3564 562,166.3564 562,166.3564 C438.32,166.3564 347.55,313.0264 313.62,377.5264 " fill="none" id="Schalter3Gedrueckt-to-Schalter1Gedrueckt" style="stroke:#181818;stroke-width:1.0;"/><polygon fill="#181818" points="311.27,382.0264,318.9754,375.8924,313.5799,377.592,311.8803,372.1965,311.27,382.0264" style="stroke:#181818;stroke-width:1.0;"/><text fill="#000000" font-family="sans-serif" font-size="13" lengthAdjust="spacing" textLength="32" x="812" y="162.8516">1/XXX</text></g><!--MD5=[ab7288209d749c51b3bbf4df72125c21]
link Schalter2Gedrueckt to Schalter3Gedrueckt--><g id="link_Schalter2Gedrueckt_Schalter3Gedrueckt"><path d="M901.03,490.9864 C1000.11,464.3364 1177.69,416.5764 1279.54,389.1864 " fill="none" id="Schalter2Gedrueckt-to-Schalter3Gedrueckt" style="stroke:#181818;stroke-width:1.0;"/><polygon fill="#181818" points="1284.64,387.8164,1274.9096,386.2937,1279.8119,389.1163,1276.9894,394.0187,1284.64,387.8164" style="stroke:#181818;stroke-width:1.0;"/><text fill="#000000" font-family="sans-serif" font-size="13" lengthAdjust="spacing" textLength="32" x="1077" y="410.8516">3/XXX</text></g><!--MD5=[70c7bc07afcb87f8d8311dda31add447]
link Schalter3Gedrueckt to Schalter2Gedrueckt--><g id="link_Schalter3Gedrueckt_Schalter2Gedrueckt"><path d="M1333.08,393.4364 C1303.08,422.9764 1248.55,470.6764 1191,491.3564 C1097.45,524.9864 981.52,524.3464 906.45,518.9264 " fill="none" id="Schalter3Gedrueckt-to-Schalter2Gedrueckt" style="stroke:#181818;stroke-width:1.0;"/><polygon fill="#181818" points="901.12,518.5264,909.7847,523.2087,906.1051,518.9121,910.4017,515.2326,901.12,518.5264" style="stroke:#181818;stroke-width:1.0;"/><text fill="#000000" font-family="sans-serif" font-size="13" lengthAdjust="spacing" textLength="32" x="1077" y="487.8516">2/XXX</text></g><!--MD5=[296130a660a46a90b8f176e2080ec478]
link Schalter1GedruecktZweiMal to Schalter2Gedrueckt--><g id="link_Schalter1GedruecktZweiMal_Schalter2Gedrueckt"><path d="M649.68,432.3764 C674.27,440.2764 700.94,449.5264 725,459.3564 C741.92,466.2764 759.9,474.8364 775.98,482.9564 " fill="none" id="Schalter1GedruecktZweiMal-to-Schalter2Gedrueckt" style="stroke:#181818;stroke-width:1.0;"/><polygon fill="#181818" points="780.46,485.2264,774.238,477.5919,775.9994,482.9675,770.6237,484.7289,780.46,485.2264" style="stroke:#181818;stroke-width:1.0;"/><text fill="#000000" font-family="sans-serif" font-size="13" lengthAdjust="spacing" textLength="32" x="692" y="444.8516">2/XXX</text></g><!--MD5=[5e3506592636ea1238abf6f5855e22f3]
link Schalter1GedruecktZweiMal to Schalter3Gedrueckt--><g id="link_Schalter1GedruecktZweiMal_Schalter3Gedrueckt"><path d="M661.24,402.5764 C820.64,394.7364 1134.34,379.3064 1279.69,372.1564 " fill="none" id="Schalter1GedruecktZweiMal-to-Schalter3Gedrueckt" style="stroke:#181818;stroke-width:1.0;"/><polygon fill="#181818" points="1284.79,371.9064,1275.6065,368.3478,1279.7959,372.149,1275.9947,376.3384,1284.79,371.9064" style="stroke:#181818;stroke-width:1.0;"/><text fill="#000000" font-family="sans-serif" font-size="13" lengthAdjust="spacing" textLength="32" x="932" y="384.8516">3/XXX</text></g><!--MD5=[c84fd5e2b2df968a9931f87388758c95]
link Schalter2GedruecktZweiMal to Schalter3Gedrueckt--><g id="link_Schalter2GedruecktZweiMal_Schalter3Gedrueckt"><path d="M1178.3,315.3564 C1210.82,325.0064 1247.77,335.9664 1279.61,345.4064 " fill="none" id="Schalter2GedruecktZweiMal-to-Schalter3Gedrueckt" style="stroke:#181818;stroke-width:1.0;"/><polygon fill="#181818" points="1284.67,346.9064,1277.1675,340.5259,1279.8739,345.4933,1274.9064,348.1997,1284.67,346.9064" style="stroke:#181818;stroke-width:1.0;"/><text fill="#000000" font-family="sans-serif" font-size="13" lengthAdjust="spacing" textLength="32" x="1222" y="325.8516">3/XXX</text></g><!--MD5=[2a2a4e5a19a1413b6ee3be01df3cc13f]
link Schalter2GedruecktZweiMal to Schalter1Gedrueckt--><g id="link_Schalter2GedruecktZweiMal_Schalter1Gedrueckt"><path d="M994.87,281.5564 C869.84,273.1764 647.02,268.2964 465,318.3564 C418.83,331.0564 371.17,358.3464 338.83,379.3764 " fill="none" id="Schalter2GedruecktZweiMal-to-Schalter1Gedrueckt" style="stroke:#181818;stroke-width:1.0;"/><polygon fill="#181818" points="334.57,382.1764,344.2901,380.5893,338.7521,379.436,339.9054,373.8979,334.57,382.1764" style="stroke:#181818;stroke-width:1.0;"/><text fill="#000000" font-family="sans-serif" font-size="13" lengthAdjust="spacing" textLength="32" x="692" y="276.8516">1/XXX</text></g><!--MD5=[86002f84d7fb81b28277b20f4ebf0dba]
link Schalter3GedruecktZweiMal to Schalter1Gedrueckt--><g id="link_Schalter3GedruecktZweiMal_Schalter1Gedrueckt"><path d="M1612.17,343.1664 C1583.95,275.5764 1495.89,95.3564 1359,95.3564 C562,95.3564 562,95.3564 562,95.3564 C415.38,95.3564 333.94,299.2664 308.12,377.3964 " fill="none" id="Schalter3GedruecktZweiMal-to-Schalter1Gedrueckt" style="stroke:#181818;stroke-width:1.0;"/><polygon fill="#181818" points="306.5,382.3564,313.1013,375.0474,308.0554,377.6045,305.4982,372.5587,306.5,382.3564" style="stroke:#181818;stroke-width:1.0;"/><text fill="#000000" font-family="sans-serif" font-size="13" lengthAdjust="spacing" textLength="32" x="932" y="91.8516">1/XXX</text></g><!--MD5=[27dbfda54ddc646fb82c7da7ae4ff8d1]
link Schalter3GedruecktZweiMal to Schalter2Gedrueckt--><g id="link_Schalter3GedruecktZweiMal_Schalter2Gedrueckt"><path d="M1572.92,393.5064 C1494.62,432.0764 1335.52,504.0964 1191,530.3564 C1077.31,551.0164 1046.01,541.5264 931,530.3564 C922.97,529.5764 914.63,528.4564 906.34,527.1464 " fill="none" id="Schalter3GedruecktZweiMal-to-Schalter2Gedrueckt" style="stroke:#181818;stroke-width:1.0;"/><polygon fill="#181818" points="901.18,526.3064,909.4228,531.6968,906.1154,527.1076,910.7046,523.8001,901.18,526.3064" style="stroke:#181818;stroke-width:1.0;"/><text fill="#000000" font-family="sans-serif" font-size="13" lengthAdjust="spacing" textLength="32" x="1222" y="513.8516">2/XXX</text></g><!--MD5=[7f9937182861182a56b9c5434ee98103]
@startuml Zustandsdiagramm

left to right direction

[*] -> NichtsGedrueckt
NichtsGedrueckt - -> Schalter1Gedrueckt : 1/XXX
Schalter1Gedrueckt - -> Schalter1GedruecktZweiMal : 1/0XX
Schalter1GedruecktZweiMal - -> Schalter1GedruecktZweiMal : 1/0XX
NichtsGedrueckt - -> Schalter2Gedrueckt : 2/XXX
Schalter2Gedrueckt - -> Schalter2GedruecktZweiMal : 2/X0X
Schalter2GedruecktZweiMal - -> Schalter2GedruecktZweiMal : 2/X0X
NichtsGedrueckt - -> Schalter3Gedrueckt : 3/XXX
Schalter3Gedrueckt - -> Schalter3GedruecktZweiMal : 3/XX0
Schalter3GedruecktZweiMal - -> Schalter3GedruecktZweiMal : 3/XX0

Schalter1Gedrueckt - -> Schalter2Gedrueckt : 2/XXX
Schalter1Gedrueckt - -> Schalter3Gedrueckt : 3/XXX
Schalter2Gedrueckt - -> Schalter1Gedrueckt : 1/XXX
Schalter2Gedrueckt - -> Schalter3Gedrueckt : 3/XXX
Schalter3Gedrueckt - -> Schalter1Gedrueckt : 1/XXX
Schalter3Gedrueckt - -> Schalter2Gedrueckt : 2/XXX

Schalter1GedruecktZweiMal - -> Schalter2Gedrueckt : 2/XXX
Schalter1GedruecktZweiMal - -> Schalter3Gedrueckt : 3/XXX
Schalter2GedruecktZweiMal - -> Schalter3Gedrueckt : 3/XXX
Schalter2GedruecktZweiMal - -> Schalter1Gedrueckt : 1/XXX
Schalter3GedruecktZweiMal - -> Schalter1Gedrueckt : 1/XXX
Schalter3GedruecktZweiMal - -> Schalter2Gedrueckt : 2/XXX

@enduml

PlantUML version 1.2022.7(Mon Aug 22 19:01:30 CEST 2022)
(GPL source distribution)
Java Runtime: OpenJDK Runtime Environment
JVM: OpenJDK 64-Bit Server VM
Default Encoding: Cp1252
Language: en
Country: US
--></g></svg>