<?xml version="1.0" encoding="UTF-8" standalone="no"?>
<!-- Created with Bouml (http://bouml.free.fr/) -->
<!DOCTYPE svg PUBLIC "-//W3C//DTD SVG 1.1//EN" "http://www.w3.org/Graphics/SVG/1.1/DTD/svg11.dtd">
<svg width="653" height="561" version="1.1" xmlns="http://www.w3.org/2000/svg">
<g>
	<rect fill="#cbcbcb" stroke="none" stroke-opacity="1" x="512" y="483" width="3" height="65" />
	<rect fill="#cbcbcb" stroke="none" stroke-opacity="1" x="422" y="545" width="93" height="3" />
	<rect fill="#ffffc0" stroke="black" stroke-width="1" stroke-opacity="1" x="418" y="479" width="94" height="66" />
	<text font-family="MS Shell Dlg 2" font-size="8" fill="#000000" xml:space="preserve" font-weight="bold" text-anchor="middle" x="465" y="489">Hase</text>
	<line stroke="black" stroke-opacity="1" x1="418" y1="496" x2="512" y2="496" />
	<text font-family="MS Shell Dlg 2" font-size="8" fill="#000000" xml:space="preserve" x="422" y="506">ohrenlaenge</text>
	<line stroke="black" stroke-opacity="1" x1="418" y1="513" x2="512" y2="513" />
	<text font-family="MS Shell Dlg 2" font-size="8" fill="#000000" xml:space="preserve" x="422" y="523">Hase()</text>
	<text font-family="MS Shell Dlg 2" font-size="8" fill="#000000" xml:space="preserve" x="422" y="538">getOhrenlaenge()</text>
</g>
<g>
	<rect fill="#cbcbcb" stroke="none" stroke-opacity="1" x="307" y="302" width="3" height="109" />
	<rect fill="#cbcbcb" stroke="none" stroke-opacity="1" x="225" y="408" width="85" height="3" />
	<rect fill="#ffffc0" stroke="black" stroke-width="1" stroke-opacity="1" x="221" y="298" width="86" height="110" />
	<text font-family="MS Shell Dlg 2" font-size="8" fill="#000000" xml:space="preserve" font-weight="bold" text-anchor="middle" x="264" y="308">Fleischfresser</text>
	<line stroke="black" stroke-opacity="1" x1="221" y1="315" x2="307" y2="315" />
	<text font-family="MS Shell Dlg 2" font-size="8" fill="#000000" xml:space="preserve" x="225" y="325">istJaeger</text>
	<line stroke="black" stroke-opacity="1" x1="221" y1="332" x2="307" y2="332" />
	<text font-family="MS Shell Dlg 2" font-size="8" fill="#000000" xml:space="preserve" x="225" y="342">Fleischfresser()</text>
	<text font-family="MS Shell Dlg 2" font-size="8" fill="#000000" xml:space="preserve" x="225" y="357">friss()</text>
	<text font-family="MS Shell Dlg 2" font-size="8" fill="#000000" xml:space="preserve" x="225" y="372">ausgabe()</text>
	<text font-family="MS Shell Dlg 2" font-size="8" fill="#000000" xml:space="preserve" x="225" y="387">magenInhalt()</text>
	<text font-family="MS Shell Dlg 2" font-size="8" fill="#000000" xml:space="preserve" x="225" y="402">istJeager()</text>
</g>
<g>
	<rect fill="#cbcbcb" stroke="none" stroke-opacity="1" x="351" y="484" width="3" height="55" />
	<rect fill="#cbcbcb" stroke="none" stroke-opacity="1" x="309" y="536" width="45" height="3" />
	<rect fill="#ffffc0" stroke="black" stroke-width="1" stroke-opacity="1" x="305" y="480" width="46" height="56" />
	<text font-family="MS Shell Dlg 2" font-size="8" fill="#000000" xml:space="preserve" font-weight="bold" text-anchor="middle" x="328" y="490">Wolf</text>
	<line stroke="black" stroke-opacity="1" x1="305" y1="497" x2="351" y2="497" />
	<line stroke="black" stroke-opacity="1" x1="305" y1="505" x2="351" y2="505" />
	<text font-family="MS Shell Dlg 2" font-size="8" fill="#000000" xml:space="preserve" x="309" y="515">Wolf()</text>
	<text font-family="MS Shell Dlg 2" font-size="8" fill="#000000" xml:space="preserve" x="309" y="530">erlege()</text>
</g>
<g>
	<rect fill="#cbcbcb" stroke="none" stroke-opacity="1" x="207" y="495" width="3" height="41" />
	<rect fill="#cbcbcb" stroke="none" stroke-opacity="1" x="159" y="533" width="51" height="3" />
	<rect fill="#ffffc0" stroke="black" stroke-width="1" stroke-opacity="1" x="155" y="491" width="52" height="42" />
	<text font-family="MS Shell Dlg 2" font-size="8" fill="#000000" xml:space="preserve" font-weight="bold" text-anchor="middle" x="181" y="501">Hyaene</text>
	<line stroke="black" stroke-opacity="1" x1="155" y1="508" x2="207" y2="508" />
	<line stroke="black" stroke-opacity="1" x1="155" y1="516" x2="207" y2="516" />
	<text font-family="MS Shell Dlg 2" font-size="8" fill="#000000" xml:space="preserve" x="159" y="526">Hyaene()</text>
</g>
<g>
	<rect fill="#cbcbcb" stroke="none" stroke-opacity="1" x="509" y="24" width="3" height="155" />
	<rect fill="#cbcbcb" stroke="none" stroke-opacity="1" x="439" y="176" width="73" height="3" />
	<rect fill="#ffffc0" stroke="black" stroke-width="1" stroke-opacity="1" x="435" y="20" width="74" height="156" />
	<text font-family="MS Shell Dlg 2" font-size="8" fill="#000000" xml:space="preserve" font-weight="bold" text-anchor="middle" x="472" y="30">Tier</text>
	<line stroke="black" stroke-opacity="1" x1="435" y1="37" x2="509" y2="37" />
	<text font-family="MS Shell Dlg 2" font-size="8" fill="#000000" xml:space="preserve" x="439" y="47">gewicht</text>
	<text font-family="MS Shell Dlg 2" font-size="8" fill="#000000" xml:space="preserve" x="439" y="62">name</text>
	<text font-family="MS Shell Dlg 2" font-size="8" fill="#000000" xml:space="preserve" x="439" y="77">lebendig</text>
	<line stroke="black" stroke-opacity="1" x1="435" y1="84" x2="509" y2="84" />
	<text font-family="MS Shell Dlg 2" font-size="8" fill="#000000" xml:space="preserve" x="439" y="94">Tier()</text>
	<text font-family="MS Shell Dlg 2" font-size="8" fill="#000000" xml:space="preserve" x="439" y="109">getName()</text>
	<text font-family="MS Shell Dlg 2" font-size="8" fill="#000000" xml:space="preserve" x="439" y="124">getGewicht()</text>
	<text font-family="MS Shell Dlg 2" font-size="8" fill="#000000" xml:space="preserve" x="439" y="139">istLebendig()</text>
	<text font-family="MS Shell Dlg 2" font-size="8" fill="#000000" xml:space="preserve" x="439" y="154">getZoo()</text>
	<text font-family="MS Shell Dlg 2" font-size="8" fill="#000000" xml:space="preserve" x="439" y="169">setLebendig()</text>
</g>
<g>
	<text font-family="MS Shell Dlg 2" font-size="8" fill="#000000" xml:space="preserve" x="329" y="246">&lt;&lt;ArrayList&gt;&gt;</text>
</g>
<g>
	<line stroke="black" stroke-opacity="1" x1="434" y1="145" x2="425" y2="145" />
	<line stroke="black" stroke-opacity="1" x1="434" y1="145" x2="434" y2="153" />
	<line stroke="black" stroke-opacity="1" x1="311" y1="297" x2="434" y2="145" />
</g>
<g>
	<line stroke="#000000" stroke-opacity="1" x1="317" y1="479" x2="290" y2="417" />
	<line stroke="#000000" stroke-opacity="1" x1="288" y1="412" x2="284" y2="419" />
	<line stroke="#000000" stroke-opacity="1" x1="288" y1="412" x2="295" y2="415" />
	<line stroke="#000000" stroke-opacity="1" x1="284" y1="419" x2="295" y2="415" />
</g>
<g>
	<line stroke="#000000" stroke-opacity="1" x1="194" y1="490" x2="231" y2="417" />
	<line stroke="#000000" stroke-opacity="1" x1="234" y1="412" x2="225" y2="414" />
	<line stroke="#000000" stroke-opacity="1" x1="234" y1="412" x2="236" y2="420" />
	<line stroke="#000000" stroke-opacity="1" x1="225" y1="414" x2="236" y2="420" />
</g>
<g>
	<line stroke="#000000" stroke-opacity="1" x1="311" y1="297" x2="430" y2="149" />
	<line stroke="#000000" stroke-opacity="1" x1="434" y1="145" x2="425" y2="145" />
	<line stroke="#000000" stroke-opacity="1" x1="434" y1="145" x2="434" y2="153" />
	<line stroke="#000000" stroke-opacity="1" x1="425" y1="145" x2="434" y2="153" />
</g>
<g>
	<rect fill="#cbcbcb" stroke="none" stroke-opacity="1" x="589" y="325" width="3" height="65" />
	<rect fill="#cbcbcb" stroke="none" stroke-opacity="1" x="487" y="387" width="105" height="3" />
	<rect fill="#ffffc0" stroke="black" stroke-width="1" stroke-opacity="1" x="483" y="321" width="106" height="66" />
	<text font-family="MS Shell Dlg 2" font-size="8" fill="#000000" xml:space="preserve" font-weight="bold" text-anchor="middle" x="536" y="331">Pflanzenfresser</text>
	<line stroke="black" stroke-opacity="1" x1="483" y1="338" x2="589" y2="338" />
	<text font-family="MS Shell Dlg 2" font-size="8" fill="#000000" xml:space="preserve" x="487" y="348">lieblingsPflanze</text>
	<line stroke="black" stroke-opacity="1" x1="483" y1="355" x2="589" y2="355" />
	<text font-family="MS Shell Dlg 2" font-size="8" fill="#000000" xml:space="preserve" x="487" y="365">Pflanzenfresser()</text>
	<text font-family="MS Shell Dlg 2" font-size="8" fill="#000000" xml:space="preserve" x="487" y="380">getLieblingspflanze()</text>
</g>
<g>
	<line stroke="#000000" stroke-opacity="1" x1="481" y1="478" x2="516" y2="396" />
	<line stroke="#000000" stroke-opacity="1" x1="519" y1="391" x2="511" y2="394" />
	<line stroke="#000000" stroke-opacity="1" x1="519" y1="391" x2="522" y2="398" />
	<line stroke="#000000" stroke-opacity="1" x1="511" y1="394" x2="522" y2="398" />
</g>
<g>
	<line stroke="#000000" stroke-opacity="1" x1="529" y1="320" x2="494" y2="185" />
	<line stroke="#000000" stroke-opacity="1" x1="493" y1="180" x2="488" y2="187" />
	<line stroke="#000000" stroke-opacity="1" x1="493" y1="180" x2="500" y2="184" />
	<line stroke="#000000" stroke-opacity="1" x1="488" y1="187" x2="500" y2="184" />
</g>
<g>
	<rect fill="#cbcbcb" stroke="none" stroke-opacity="1" x="637" y="481" width="3" height="65" />
	<rect fill="#cbcbcb" stroke="none" stroke-opacity="1" x="573" y="543" width="67" height="3" />
	<rect fill="#ffffc0" stroke="black" stroke-width="1" stroke-opacity="1" x="569" y="477" width="68" height="66" />
	<text font-family="MS Shell Dlg 2" font-size="8" fill="#000000" xml:space="preserve" font-weight="bold" text-anchor="middle" x="603" y="487">Reh</text>
	<line stroke="black" stroke-opacity="1" x1="569" y1="494" x2="637" y2="494" />
	<text font-family="MS Shell Dlg 2" font-size="8" fill="#000000" xml:space="preserve" x="573" y="504">geweih</text>
	<line stroke="black" stroke-opacity="1" x1="569" y1="511" x2="637" y2="511" />
	<text font-family="MS Shell Dlg 2" font-size="8" fill="#000000" xml:space="preserve" x="573" y="521">Reh()</text>
	<text font-family="MS Shell Dlg 2" font-size="8" fill="#000000" xml:space="preserve" x="573" y="536">hasGeweih()</text>
</g>
<g>
	<line stroke="#000000" stroke-opacity="1" x1="589" y1="476" x2="554" y2="396" />
	<line stroke="#000000" stroke-opacity="1" x1="552" y1="391" x2="548" y2="398" />
	<line stroke="#000000" stroke-opacity="1" x1="552" y1="391" x2="559" y2="394" />
	<line stroke="#000000" stroke-opacity="1" x1="548" y1="398" x2="559" y2="394" />
</g>
<g>
	<text font-family="MS Shell Dlg 2" font-size="8" fill="#000000" xml:space="preserve" x="402" y="90">tiere</text>
</g>
<g>
	<text font-family="MS Shell Dlg 2" font-size="8" fill="#000000" xml:space="preserve" x="441" y="181">mageninhalt</text>
</g>
<g>
	<text font-family="MS Shell Dlg 2" font-size="8" fill="#000000" xml:space="preserve" x="368" y="141">zoo</text>
</g>
<g>
	<text font-family="MS Shell Dlg 2" font-size="8" fill="#000000" xml:space="preserve" x="248" y="119">tierliste</text>
</g>
<g>
	<rect fill="#cbcbcb" stroke="none" stroke-opacity="1" x="354" y="123" width="3" height="109" />
	<rect fill="#cbcbcb" stroke="none" stroke-opacity="1" x="282" y="229" width="75" height="3" />
	<rect fill="#ffffc0" stroke="black" stroke-width="1" stroke-opacity="1" x="278" y="119" width="76" height="110" />
	<text font-family="MS Shell Dlg 2" font-size="8" fill="#000000" xml:space="preserve" font-weight="bold" text-anchor="middle" x="316" y="129">Zoo</text>
	<line stroke="black" stroke-opacity="1" x1="278" y1="136" x2="354" y2="136" />
	<text font-family="MS Shell Dlg 2" font-size="8" fill="#000000" xml:space="preserve" x="282" y="146">name</text>
	<line stroke="black" stroke-opacity="1" x1="278" y1="153" x2="354" y2="153" />
	<text font-family="MS Shell Dlg 2" font-size="8" fill="#000000" xml:space="preserve" x="282" y="163">Zoo()</text>
	<text font-family="MS Shell Dlg 2" font-size="8" fill="#000000" xml:space="preserve" x="282" y="178">nimmTierAuf()</text>
	<text font-family="MS Shell Dlg 2" font-size="8" fill="#000000" xml:space="preserve" x="282" y="193">loescheTier()</text>
	<text font-family="MS Shell Dlg 2" font-size="8" fill="#000000" xml:space="preserve" x="282" y="208">toString()</text>
	<text font-family="MS Shell Dlg 2" font-size="8" fill="#000000" xml:space="preserve" x="282" y="223">getZooName()</text>
</g>
<g>
	<line stroke="black" stroke-opacity="1" x1="358" y1="154" x2="365" y2="156" />
	<line stroke="black" stroke-opacity="1" x1="358" y1="154" x2="360" y2="146" />
	<line stroke="black" stroke-opacity="1" x1="434" y1="119" x2="358" y2="154" />
</g>
<g>
	<rect fill="#cbcbcb" stroke="none" stroke-opacity="1" x="234" y="49" width="3" height="101" />
	<rect fill="#cbcbcb" stroke="none" stroke-opacity="1" x="168" y="147" width="69" height="3" />
	<rect fill="#ffffc0" stroke="black" stroke-width="1" stroke-opacity="1" x="164" y="45" width="70" height="102" />
	<text font-family="MS Shell Dlg 2" font-size="8" fill="#000000" xml:space="preserve" font-weight="bold" text-anchor="middle" x="199" y="55">Tierliste</text>
	<line stroke="black" stroke-opacity="1" x1="164" y1="62" x2="234" y2="62" />
	<line stroke="black" stroke-opacity="1" x1="164" y1="70" x2="234" y2="70" />
	<text font-family="MS Shell Dlg 2" font-size="8" fill="#000000" xml:space="preserve" x="168" y="80">Tierliste()</text>
	<text font-family="MS Shell Dlg 2" font-size="8" fill="#000000" xml:space="preserve" x="168" y="95">fuegeHinzu()</text>
	<text font-family="MS Shell Dlg 2" font-size="8" fill="#000000" xml:space="preserve" x="168" y="110">loesche()</text>
	<text font-family="MS Shell Dlg 2" font-size="8" fill="#000000" xml:space="preserve" x="168" y="125">toString()</text>
	<text font-family="MS Shell Dlg 2" font-size="8" fill="#000000" xml:space="preserve" x="168" y="140">getNames()</text>
</g>
<g>
	<text font-family="MS Shell Dlg 2" font-size="8" fill="#000000" xml:space="preserve" x="299" y="101">&lt;&lt;ArrayList&gt;&gt;</text>
</g>
<g>
	<line stroke="black" stroke-opacity="1" x1="238" y1="122" x2="239" y2="130" />
	<line stroke="black" stroke-opacity="1" x1="238" y1="122" x2="246" y2="120" />
	<line stroke="black" stroke-opacity="1" x1="277" y1="148" x2="238" y2="122" />
</g>
<g>
	<line stroke="black" stroke-opacity="1" x1="434" y1="99" x2="428" y2="92" />
	<line stroke="black" stroke-opacity="1" x1="434" y1="99" x2="427" y2="104" />
	<line stroke="black" stroke-opacity="1" x1="238" y1="98" x2="434" y2="99" />
</g>
</svg>
